<svg width="279" height="35" viewBox="0 0 279 35" fill="none" xmlns="http://www.w3.org/2000/svg">
  <path fill-rule="evenodd" clip-rule="evenodd" d="M28.8256 0C21.1388 0 16.3346 3.84339 14.4129 11.5302C17.2955 7.68679 20.6584 6.24552 24.5018 7.20636C26.6947 7.75459 28.262 9.34548 29.9969 11.1065C32.8231 13.9752 36.094 17.2953 43.2384 17.2953C50.9251 17.2953 55.7294 13.4519 57.6511 5.76509C54.7685 9.60848 51.4056 11.0498 47.5622 10.0889C45.3693 9.54068 43.802 7.94979 42.067 6.18877C39.2409 3.32011 35.97 0 28.8256 0ZM14.4127 17.2954C6.72594 17.2954 1.9217 21.1388 0 28.8256C2.88255 24.9822 6.24551 23.5409 10.0889 24.5017C12.2818 25.05 13.8491 26.6409 15.584 28.4019C18.4102 31.2705 21.6811 34.5907 28.8255 34.5907C36.5122 34.5907 41.3165 30.7473 43.2382 23.0605C40.3556 26.9039 36.9927 28.3451 33.1493 27.3843C30.9564 26.8361 29.3891 25.2452 27.6541 23.4842C24.828 20.6155 21.5571 17.2954 14.4127 17.2954Z" fill="#16BDCA"/>
  <path fill-rule="evenodd" clip-rule="evenodd" d="M86.4718 14.575H81.4412V24.3116C81.4412 26.908 83.1451 26.8674 86.4718 26.7052V30.6404C79.7373 31.4518 77.0598 29.5856 77.0598 24.3116V14.575H73.3274V10.3558H77.0598V4.90671L81.4412 3.6085V10.3558H86.4718V14.575ZM105.649 10.3557H110.03V30.6402H105.649V27.7193C104.107 29.8694 101.713 31.1676 98.5489 31.1676C93.0315 31.1676 88.4472 26.5022 88.4472 20.498C88.4472 14.4531 93.0315 9.82826 98.5489 9.82826C101.713 9.82826 104.107 11.1265 105.649 13.2361V10.3557ZM99.2387 26.989C102.89 26.989 105.649 24.2709 105.649 20.498C105.649 16.725 102.89 14.0069 99.2387 14.0069C95.5874 14.0069 92.8287 16.725 92.8287 20.498C92.8287 24.2709 95.5874 26.989 99.2387 26.989ZM117.332 7.31295C115.79 7.31295 114.533 6.01474 114.533 4.51368C114.533 2.97205 115.79 1.71441 117.332 1.71441C118.874 1.71441 120.131 2.97205 120.131 4.51368C120.131 6.01474 118.874 7.31295 117.332 7.31295ZM115.141 30.6402V10.3557H119.522V30.6402H115.141ZM124.593 30.6402V1.02477H128.975V30.6402H124.593ZM157.414 10.3557H162.039L155.67 30.6402H151.369L147.15 16.9684L142.891 30.6402H138.59L132.221 10.3557H136.846L140.781 24.352L145.041 10.3557H149.219L153.439 24.352L157.414 10.3557ZM167.476 7.31295C165.934 7.31295 164.676 6.01474 164.676 4.51368C164.676 2.97205 165.934 1.71441 167.476 1.71441C169.017 1.71441 170.275 2.97205 170.275 4.51368C170.275 6.01474 169.017 7.31295 167.476 7.31295ZM165.286 30.6402V10.3557H169.667V30.6402H165.286ZM185.407 9.82826C189.951 9.82826 193.197 12.9115 193.197 18.1855V30.6402H188.815V18.6318C188.815 15.5485 187.03 13.9257 184.271 13.9257C181.391 13.9257 179.119 15.6297 179.119 19.7677V30.6402H174.738V10.3557H179.119V12.9521C180.458 10.8425 182.649 9.82826 185.407 9.82826ZM213.968 2.24172H218.349V30.6401H213.968V27.7192C212.426 29.8693 210.032 31.1675 206.868 31.1675C201.351 31.1675 196.766 26.5021 196.766 20.4978C196.766 14.453 201.351 9.82815 206.868 9.82815C210.032 9.82815 212.426 11.1264 213.968 13.236V2.24172ZM207.557 26.989C211.209 26.989 213.967 24.2709 213.967 20.498C213.967 16.725 211.209 14.0069 207.557 14.0069C203.906 14.0069 201.147 16.725 201.147 20.498C201.147 24.2709 203.906 26.989 207.557 26.989ZM233.035 31.1676C226.909 31.1676 222.325 26.5022 222.325 20.498C222.325 14.4531 226.909 9.82826 233.035 9.82826C237.011 9.82826 240.459 11.8973 242.082 15.0617L238.309 17.2524C237.417 15.3457 235.429 14.1286 232.995 14.1286C229.425 14.1286 226.706 16.8467 226.706 20.498C226.706 24.1492 229.425 26.8673 232.995 26.8673C235.429 26.8673 237.417 25.6097 238.39 23.7435L242.163 25.8936C240.459 29.0986 237.011 31.1676 233.035 31.1676ZM249.384 15.9542C249.384 19.646 260.298 17.4147 260.298 24.92C260.298 28.9769 256.768 31.1676 252.387 31.1676C248.33 31.1676 245.409 29.342 244.11 26.421L247.883 24.2303C248.533 26.0559 250.155 27.1513 252.387 27.1513C254.334 27.1513 255.835 26.5022 255.835 24.8794C255.835 21.2688 244.922 23.2972 244.922 16.0353C244.922 12.2218 248.208 9.82826 252.346 9.82826C255.673 9.82826 258.431 11.3699 259.851 14.0475L256.16 16.1165C255.429 14.5343 254.009 13.804 252.346 13.804C250.764 13.804 249.384 14.4937 249.384 15.9542ZM268.087 15.9542C268.087 19.646 279 17.4147 279 24.92C279 28.9769 275.47 31.1676 271.089 31.1676C267.032 31.1676 264.111 29.342 262.813 26.421L266.586 24.2303C267.235 26.0559 268.857 27.1513 271.089 27.1513C273.036 27.1513 274.537 26.5022 274.537 24.8794C274.537 21.2688 263.624 23.2972 263.624 16.0353C263.624 12.2218 266.91 9.82826 271.048 9.82826C274.375 9.82826 277.134 11.3699 278.554 14.0475L274.862 16.1165C274.131 14.5343 272.712 13.804 271.048 13.804C269.466 13.804 268.087 14.4937 268.087 15.9542Z" fill="#2D3748"/>
</svg>
